<?xml version="1.0" encoding="utf-8"?>
<!DOCTYPE svg PUBLIC "-//W3C//DTD SVG 1.1//EN" "http://www.w3.org/Graphics/SVG/1.1/DTD/svg11.dtd">
<svg version="1.1" id="Layer_1" xmlns="http://www.w3.org/2000/svg" xmlns:xlink="http://www.w3.org/1999/xlink" x="0px" y="0px"
	 viewBox="0 0 967.5 155.9" enable-background="new 0 0 967.5 155.9" xml:space="preserve">
<g>
	<linearGradient id="SVGID_1_" gradientUnits="userSpaceOnUse" x1="617.1313" y1="8.5736" x2="743.1313" y2="8.5736">
		<stop  offset="0" style="stop-color:#FFFFFF"/>
		<stop  offset="1" style="stop-color:#FFFFFF;stop-opacity:0.1"/>
	</linearGradient>
	<polygon fill="url(#SVGID_1_)" points="738.2,17.1 617.1,17.1 617.1,0.1 743.1,0.1 	"/>
	<linearGradient id="SVGID_2_" gradientUnits="userSpaceOnUse" x1="617.1313" y1="36.2936" x2="825.0314" y2="36.2936">
		<stop  offset="0" style="stop-color:#FFFFFF"/>
		<stop  offset="1" style="stop-color:#FFFFFF;stop-opacity:0.1"/>
	</linearGradient>
	<rect x="617.1" y="27.8" fill="url(#SVGID_2_)" width="207.9" height="17"/>
	<linearGradient id="SVGID_3_" gradientUnits="userSpaceOnUse" x1="617.1313" y1="64.0136" x2="888.0314" y2="64.0136">
		<stop  offset="0" style="stop-color:#FFFFFF"/>
		<stop  offset="1" style="stop-color:#FFFFFF;stop-opacity:0.1"/>
	</linearGradient>
	<polygon fill="url(#SVGID_3_)" points="883.1,72.5 617.1,72.5 617.1,55.5 888,55.5 	"/>
	<linearGradient id="SVGID_4_" gradientUnits="userSpaceOnUse" x1="617.1313" y1="91.7336" x2="773.2313" y2="91.7336">
		<stop  offset="0" style="stop-color:#FFFFFF"/>
		<stop  offset="1" style="stop-color:#FFFFFF;stop-opacity:0.1"/>
	</linearGradient>
	<polygon fill="url(#SVGID_4_)" points="773.2,100.2 617.1,100.2 617.1,83.2 769.7,83.2 	"/>
	<linearGradient id="SVGID_5_" gradientUnits="userSpaceOnUse" x1="617.1313" y1="119.4536" x2="873.3314" y2="119.4536">
		<stop  offset="0" style="stop-color:#FFFFFF"/>
		<stop  offset="1" style="stop-color:#FFFFFF;stop-opacity:0.1"/>
	</linearGradient>
	<polygon fill="url(#SVGID_5_)" points="869.1,128 617.1,128 617.1,111 873.3,111 	"/>
	<linearGradient id="SVGID_6_" gradientUnits="userSpaceOnUse" x1="617.1313" y1="147.1736" x2="946.8314" y2="147.1736">
		<stop  offset="0" style="stop-color:#FFFFFF"/>
		<stop  offset="1" style="stop-color:#FFFFFF;stop-opacity:0.1"/>
	</linearGradient>
	<polygon fill="url(#SVGID_6_)" points="946.8,155.7 617.1,155.7 617.1,138.7 942.6,138.7 	"/>
	<path fill="#FFFFFF" d="M0,155.9V0h60.7c7.1,0,21.2,3.1,30.1,17.7c6.7,10.8,8.5,28.1,8.5,53.8c0,30.8,0,66.3-23.9,80.2
		c-6.4,3.7-14.3,4.2-21.6,4.2H0z M41.8,133.1c26,0,27.7-13.7,27.7-58.8c0-36.8-3.7-51.4-21.2-51.4H29.1v110.2H41.8z"/>
	<path fill="#FFFFFF" d="M146.3,88.8v67.2h-29.1V0h55.1c25.2,0,44.3,8.7,44.3,37.4c0,17-4.4,34.9-23.9,37.6v0.4
		c17.3,2.3,22.5,13.3,22.5,28.3v6.7c0,13.1,0.4,38.9,6.2,42.6v2.9h-32c-2.9-8.1-3.1-22.2-3.1-32.6v-6.9c-0.2-9.6,0-22.7-10-25.6
		c-6.7-1.9-13.7-2.1-20.8-2.1h-3.9H146.3z M146.3,65.9h22.9c9.6-0.6,17-6.9,17-22.5c0-17.5-7.3-20.4-18.3-20.6h-21.6V65.9z"/>
	<path fill="#FFFFFF" d="M237.2,155.9V0h29.1v155.9H237.2z"/>
	<path fill="#FFFFFF" d="M355.5,0h31.2l-33.7,155.9h-38.9L279.7,0h31.2l18.3,100c1.7,8.7,2.7,17.7,3.5,26.6
		c0.4,4.2,1.2,8.5,1.2,12.9h0.4c0-4.4,0.8-8.7,1.2-12.9c0.8-8.9,1.9-17.9,3.5-26.6L355.5,0z"/>
	<path fill="#FFFFFF" d="M399.7,155.9V0h81.9v22.9h-52.8v39.3h48.6V85h-48.6v48h52.8v22.9H399.7z"/>
	<path fill="#FFFFFF" d="M566.8,0h29.1v155.9h-30.4l-22.7-55.5c-7.7-18.5-13.9-37.4-20.8-62h-0.4c1,12.9,2.3,28.7,3.1,44.5
		c0.8,15.6,1.5,31.2,1.5,43.7v29.3h-29.1V0h30.1l22.7,56.8c7.5,18.1,13.7,36.6,20.8,62h0.4c-1-14.1-2.1-29.3-2.9-44.3
		c-0.8-15-1.5-29.9-1.5-43.9V0z"/>
	<path fill="#FFFFFF" d="M616.5,0h27.9c17.7,0,33.5,1,46.2,14.8c10.4,12.5,15,35.8,15,51.4c0,17.7,0.4,41.2-6,58
		c-9.6,26.8-26.4,31.8-52.4,31.8h-30.6V0z M630.1,143.9h16.2c7.7,0,16.8,0,23.9-3.3C691,131,692,96.7,692,77.8
		c0-19.8,0.4-50.9-20.2-62.2c-8.1-4.4-20.8-4-30.1-3.5h-11.6V143.9z"/>
	<path fill="#FFFFFF" d="M766.6,0l41.8,155.9h-13.7l-12.3-48H735l-12.7,48h-13.1L751.1,0H766.6z M779.5,95.8L759,17h-0.4L738,95.8
		H779.5z"/>
	<path fill="#FFFFFF" d="M796.4,12.1V0h84.2v12.1h-35.3v143.9h-13.5V12.1H796.4z"/>
	<path fill="#FFFFFF" d="M925.7,0l41.8,155.9h-13.7l-12.3-48h-47.4l-12.7,48h-13.1L910.2,0H925.7z M938.6,95.8L918.1,17h-0.4
		l-20.6,78.8H938.6z"/>
</g>
</svg>
